# xmcd CD database file
#
# Track frame offsets:
#	150
#	20008
#	39963
#	59294
#	79106
#	99064
#
# Disc length: 1576 seconds
#
# Revision: 1
# Processed by: cddbd v1.5.1PL2 Copyright (c) Steve Scherf et al.
# Submitted via: CDex 1.51
#
DISCID=3a062606
DTITLE=リトル☆レンズ - スパイスィ→カレー
DYEAR=2005
DGENRE=JPop
TTITLE0=スパイスィ→カレー
TTITLE1=パッとヒラメキ大発明!?
TTITLE2=Rainbow Skip
TTITLE3=スパイスィ→カレー（カラオケ）
TTITLE4=パッとヒラメキ大発明!?（カラオケ）
TTITLE5=Rainbow Skip（カラオケ）
EXTD=YEAR: 2005
EXTT0=
EXTT1=
EXTT2=
EXTT3=
EXTT4=
EXTT5=
PLAYORDER=
